<svg xmlns="http://www.w3.org/2000/svg" width="259" height="1225"><clipPath id="clip"><rect rx="3" width="100%" height="100%" fill="#000"/></clipPath><linearGradient id="grad" x2="0" y2="100%"><stop offset="0" stop-color="#bbb" stop-opacity=".1"/><stop offset="1" stop-opacity=".1"/></linearGradient><g clip-path="url(#clip)"><rect width="100%" height="100%" fill="#555"/><g fill="#fff" text-anchor="middle" font-family="DejaVu Sans,Verdana,Geneva,sans-serif" font-size="15" font-weight="bold"><text x="129.5" y="18" fill="#010101" fill-opacity=".3">Packaging status</text><text x="129.5" y="17">Packaging status</text></g><rect x="178" y="25" width="81" height="20" fill="#e05d44"/><rect y="25" width="100%" height="20" fill="url(#grad)"/><g fill="#fff" font-family="DejaVu Sans,Verdana,Geneva,sans-serif" font-size="11"><text x="173" y="40" fill="#010101" fill-opacity=".3" text-anchor="end">Alpine Linux 3.17</text><text x="173" y="39" text-anchor="end">Alpine Linux 3.17</text><text x="218.5" y="40" fill="#010101" fill-opacity=".3" text-anchor="middle">1.4.1</text><text x="218.5" y="39" text-anchor="middle">1.4.1</text></g><rect x="178" y="45" width="81" height="20" fill="#e05d44"/><rect y="45" width="100%" height="20" fill="url(#grad)"/><g fill="#fff" font-family="DejaVu Sans,Verdana,Geneva,sans-serif" font-size="11"><text x="173" y="60" fill="#010101" fill-opacity=".3" text-anchor="end">Alpine Linux 3.18</text><text x="173" y="59" text-anchor="end">Alpine Linux 3.18</text><text x="218.5" y="60" fill="#010101" fill-opacity=".3" text-anchor="middle">1.4.2.1</text><text x="218.5" y="59" text-anchor="middle">1.4.2.1</text></g><rect x="178" y="65" width="81" height="20" fill="#e05d44"/><rect y="65" width="100%" height="20" fill="url(#grad)"/><g fill="#fff" font-family="DejaVu Sans,Verdana,Geneva,sans-serif" font-size="11"><text x="173" y="80" fill="#010101" fill-opacity=".3" text-anchor="end">Alpine Linux 3.19</text><text x="173" y="79" text-anchor="end">Alpine Linux 3.19</text><text x="218.5" y="80" fill="#010101" fill-opacity=".3" text-anchor="middle">1.6.0.1</text><text x="218.5" y="79" text-anchor="middle">1.6.0.1</text></g><rect x="178" y="85" width="81" height="20" fill="#4c1"/><rect y="85" width="100%" height="20" fill="url(#grad)"/><g fill="#fff" font-family="DejaVu Sans,Verdana,Geneva,sans-serif" font-size="11"><text x="173" y="100" fill="#010101" fill-opacity=".3" text-anchor="end">Alpine Linux Edge</text><text x="173" y="99" text-anchor="end">Alpine Linux Edge</text><text x="218.5" y="100" fill="#010101" fill-opacity=".3" text-anchor="middle">1.7.1</text><text x="218.5" y="99" text-anchor="middle">1.7.1</text></g><rect x="178" y="105" width="81" height="20" fill="#4c1"/><rect y="105" width="100%" height="20" fill="url(#grad)"/><g fill="#fff" font-family="DejaVu Sans,Verdana,Geneva,sans-serif" font-size="11"><text x="173" y="120" fill="#010101" fill-opacity=".3" text-anchor="end">Arch</text><text x="173" y="119" text-anchor="end">Arch</text><text x="218.5" y="120" fill="#010101" fill-opacity=".3" text-anchor="middle">1.7.1.0</text><text x="218.5" y="119" text-anchor="middle">1.7.1.0</text></g><rect x="178" y="125" width="81" height="20" fill="#4c1"/><rect y="125" width="100%" height="20" fill="url(#grad)"/><g fill="#fff" font-family="DejaVu Sans,Verdana,Geneva,sans-serif" font-size="11"><text x="173" y="140" fill="#010101" fill-opacity=".3" text-anchor="end">Arch Linux 32 i486</text><text x="173" y="139" text-anchor="end">Arch Linux 32 i486</text><text x="218.5" y="140" fill="#010101" fill-opacity=".3" text-anchor="middle">1.7.1.0</text><text x="218.5" y="139" text-anchor="middle">1.7.1.0</text></g><rect x="178" y="145" width="81" height="20" fill="#4c1"/><rect y="145" width="100%" height="20" fill="url(#grad)"/><g fill="#fff" font-family="DejaVu Sans,Verdana,Geneva,sans-serif" font-size="11"><text x="173" y="160" fill="#010101" fill-opacity=".3" text-anchor="end">Arch Linux 32 i686</text><text x="173" y="159" text-anchor="end">Arch Linux 32 i686</text><text x="218.5" y="160" fill="#010101" fill-opacity=".3" text-anchor="middle">1.7.1.0</text><text x="218.5" y="159" text-anchor="middle">1.7.1.0</text></g><rect x="178" y="165" width="81" height="20" fill="#4c1"/><rect y="165" width="100%" height="20" fill="url(#grad)"/><g fill="#fff" font-family="DejaVu Sans,Verdana,Geneva,sans-serif" font-size="11"><text x="173" y="180" fill="#010101" fill-opacity=".3" text-anchor="end">Arch Linux 32 pentium4</text><text x="173" y="179" text-anchor="end">Arch Linux 32 pentium4</text><text x="218.5" y="180" fill="#010101" fill-opacity=".3" text-anchor="middle">1.7.1.0</text><text x="218.5" y="179" text-anchor="middle">1.7.1.0</text></g><rect x="178" y="185" width="81" height="20" fill="#4c1"/><rect y="185" width="100%" height="20" fill="url(#grad)"/><g fill="#fff" font-family="DejaVu Sans,Verdana,Geneva,sans-serif" font-size="11"><text x="173" y="200" fill="#010101" fill-opacity=".3" text-anchor="end">Arch Linux ARM aarch64</text><text x="173" y="199" text-anchor="end">Arch Linux ARM aarch64</text><text x="218.5" y="200" fill="#010101" fill-opacity=".3" text-anchor="middle">1.7.1.0</text><text x="218.5" y="199" text-anchor="middle">1.7.1.0</text></g><rect x="178" y="205" width="81" height="20" fill="#9f9f9f"/><rect y="205" width="100%" height="20" fill="url(#grad)"/><g fill="#fff" font-family="DejaVu Sans,Verdana,Geneva,sans-serif" font-size="11"><text x="173" y="220" fill="#010101" fill-opacity=".3" text-anchor="end">AUR</text><text x="173" y="219" text-anchor="end">AUR</text><text x="218.5" y="220" fill="#010101" fill-opacity=".3" text-anchor="middle">1.5.0.r952...</text><text x="218.5" y="219" text-anchor="middle">1.5.0.r952...</text></g><rect x="178" y="225" width="81" height="20" fill="#4c1"/><rect y="225" width="100%" height="20" fill="url(#grad)"/><g fill="#fff" font-family="DejaVu Sans,Verdana,Geneva,sans-serif" font-size="11"><text x="173" y="240" fill="#010101" fill-opacity=".3" text-anchor="end">CRUX 3.7</text><text x="173" y="239" text-anchor="end">CRUX 3.7</text><text x="218.5" y="240" fill="#010101" fill-opacity=".3" text-anchor="middle">1.7.1</text><text x="218.5" y="239" text-anchor="middle">1.7.1</text></g><rect x="178" y="245" width="81" height="20" fill="#e05d44"/><rect y="245" width="100%" height="20" fill="url(#grad)"/><g fill="#fff" font-family="DejaVu Sans,Verdana,Geneva,sans-serif" font-size="11"><text x="173" y="260" fill="#010101" fill-opacity=".3" text-anchor="end">Debian 12</text><text x="173" y="259" text-anchor="end">Debian 12</text><text x="218.5" y="260" fill="#010101" fill-opacity=".3" text-anchor="middle">1.4.2.1</text><text x="218.5" y="259" text-anchor="middle">1.4.2.1</text></g><rect x="178" y="265" width="81" height="20" fill="#4c1"/><rect y="265" width="100%" height="20" fill="url(#grad)"/><g fill="#fff" font-family="DejaVu Sans,Verdana,Geneva,sans-serif" font-size="11"><text x="173" y="280" fill="#010101" fill-opacity=".3" text-anchor="end">Debian 13</text><text x="173" y="279" text-anchor="end">Debian 13</text><text x="218.5" y="280" fill="#010101" fill-opacity=".3" text-anchor="middle">1.7.1.0</text><text x="218.5" y="279" text-anchor="middle">1.7.1.0</text></g><rect x="178" y="285" width="81" height="20" fill="#4c1"/><rect y="285" width="100%" height="20" fill="url(#grad)"/><g fill="#fff" font-family="DejaVu Sans,Verdana,Geneva,sans-serif" font-size="11"><text x="173" y="300" fill="#010101" fill-opacity=".3" text-anchor="end">Debian Unstable</text><text x="173" y="299" text-anchor="end">Debian Unstable</text><text x="218.5" y="300" fill="#010101" fill-opacity=".3" text-anchor="middle">1.7.1.0</text><text x="218.5" y="299" text-anchor="middle">1.7.1.0</text></g><rect x="178" y="305" width="81" height="20" fill="#e05d44"/><rect y="305" width="100%" height="20" fill="url(#grad)"/><g fill="#fff" font-family="DejaVu Sans,Verdana,Geneva,sans-serif" font-size="11"><text x="173" y="320" fill="#010101" fill-opacity=".3" text-anchor="end">deepin 23</text><text x="173" y="319" text-anchor="end">deepin 23</text><text x="218.5" y="320" fill="#010101" fill-opacity=".3" text-anchor="middle">1.6.0.1</text><text x="218.5" y="319" text-anchor="middle">1.6.0.1</text></g><rect x="178" y="325" width="81" height="20" fill="#4c1"/><rect y="325" width="100%" height="20" fill="url(#grad)"/><g fill="#fff" font-family="DejaVu Sans,Verdana,Geneva,sans-serif" font-size="11"><text x="173" y="340" fill="#010101" fill-opacity=".3" text-anchor="end">Devuan Unstable</text><text x="173" y="339" text-anchor="end">Devuan Unstable</text><text x="218.5" y="340" fill="#010101" fill-opacity=".3" text-anchor="middle">1.7.1.0</text><text x="218.5" y="339" text-anchor="middle">1.7.1.0</text></g><rect x="178" y="345" width="81" height="20" fill="#4c1"/><rect y="345" width="100%" height="20" fill="url(#grad)"/><g fill="#fff" font-family="DejaVu Sans,Verdana,Geneva,sans-serif" font-size="11"><text x="173" y="360" fill="#010101" fill-opacity=".3" text-anchor="end">EPEL 8</text><text x="173" y="359" text-anchor="end">EPEL 8</text><text x="218.5" y="360" fill="#010101" fill-opacity=".3" text-anchor="middle">1.7.1</text><text x="218.5" y="359" text-anchor="middle">1.7.1</text></g><rect x="178" y="365" width="81" height="20" fill="#4c1"/><rect y="365" width="100%" height="20" fill="url(#grad)"/><g fill="#fff" font-family="DejaVu Sans,Verdana,Geneva,sans-serif" font-size="11"><text x="173" y="380" fill="#010101" fill-opacity=".3" text-anchor="end">EPEL 9</text><text x="173" y="379" text-anchor="end">EPEL 9</text><text x="218.5" y="380" fill="#010101" fill-opacity=".3" text-anchor="middle">1.7.1</text><text x="218.5" y="379" text-anchor="middle">1.7.1</text></g><rect x="178" y="385" width="81" height="20" fill="#e05d44"/><rect y="385" width="100%" height="20" fill="url(#grad)"/><g fill="#fff" font-family="DejaVu Sans,Verdana,Geneva,sans-serif" font-size="11"><text x="173" y="400" fill="#010101" fill-opacity=".3" text-anchor="end">Fedora 34</text><text x="173" y="399" text-anchor="end">Fedora 34</text><text x="218.5" y="400" fill="#010101" fill-opacity=".3" text-anchor="middle">1.2.15</text><text x="218.5" y="399" text-anchor="middle">1.2.15</text></g><rect x="178" y="405" width="81" height="20" fill="#e05d44"/><rect y="405" width="100%" height="20" fill="url(#grad)"/><g fill="#fff" font-family="DejaVu Sans,Verdana,Geneva,sans-serif" font-size="11"><text x="173" y="420" fill="#010101" fill-opacity=".3" text-anchor="end">Fedora 35</text><text x="173" y="419" text-anchor="end">Fedora 35</text><text x="218.5" y="420" fill="#010101" fill-opacity=".3" text-anchor="middle">1.4.1</text><text x="218.5" y="419" text-anchor="middle">1.4.1</text></g><rect x="178" y="425" width="81" height="20" fill="#e05d44"/><rect y="425" width="100%" height="20" fill="url(#grad)"/><g fill="#fff" font-family="DejaVu Sans,Verdana,Geneva,sans-serif" font-size="11"><text x="173" y="440" fill="#010101" fill-opacity=".3" text-anchor="end">Fedora 36</text><text x="173" y="439" text-anchor="end">Fedora 36</text><text x="218.5" y="440" fill="#010101" fill-opacity=".3" text-anchor="middle">1.4.2.1</text><text x="218.5" y="439" text-anchor="middle">1.4.2.1</text></g><rect x="178" y="445" width="81" height="20" fill="#e05d44"/><rect y="445" width="100%" height="20" fill="url(#grad)"/><g fill="#fff" font-family="DejaVu Sans,Verdana,Geneva,sans-serif" font-size="11"><text x="173" y="460" fill="#010101" fill-opacity=".3" text-anchor="end">Fedora 37</text><text x="173" y="459" text-anchor="end">Fedora 37</text><text x="218.5" y="460" fill="#010101" fill-opacity=".3" text-anchor="middle">1.6.0.1</text><text x="218.5" y="459" text-anchor="middle">1.6.0.1</text></g><rect x="178" y="465" width="81" height="20" fill="#4c1"/><rect y="465" width="100%" height="20" fill="url(#grad)"/><g fill="#fff" font-family="DejaVu Sans,Verdana,Geneva,sans-serif" font-size="11"><text x="173" y="480" fill="#010101" fill-opacity=".3" text-anchor="end">Fedora 38</text><text x="173" y="479" text-anchor="end">Fedora 38</text><text x="218.5" y="480" fill="#010101" fill-opacity=".3" text-anchor="middle">1.7.1</text><text x="218.5" y="479" text-anchor="middle">1.7.1</text></g><rect x="178" y="485" width="81" height="20" fill="#4c1"/><rect y="485" width="100%" height="20" fill="url(#grad)"/><g fill="#fff" font-family="DejaVu Sans,Verdana,Geneva,sans-serif" font-size="11"><text x="173" y="500" fill="#010101" fill-opacity=".3" text-anchor="end">Fedora 39</text><text x="173" y="499" text-anchor="end">Fedora 39</text><text x="218.5" y="500" fill="#010101" fill-opacity=".3" text-anchor="middle">1.7.1</text><text x="218.5" y="499" text-anchor="middle">1.7.1</text></g><rect x="178" y="505" width="81" height="20" fill="#4c1"/><rect y="505" width="100%" height="20" fill="url(#grad)"/><g fill="#fff" font-family="DejaVu Sans,Verdana,Geneva,sans-serif" font-size="11"><text x="173" y="520" fill="#010101" fill-opacity=".3" text-anchor="end">Fedora 40</text><text x="173" y="519" text-anchor="end">Fedora 40</text><text x="218.5" y="520" fill="#010101" fill-opacity=".3" text-anchor="middle">1.7.1</text><text x="218.5" y="519" text-anchor="middle">1.7.1</text></g><rect x="178" y="525" width="81" height="20" fill="#4c1"/><rect y="525" width="100%" height="20" fill="url(#grad)"/><g fill="#fff" font-family="DejaVu Sans,Verdana,Geneva,sans-serif" font-size="11"><text x="173" y="540" fill="#010101" fill-opacity=".3" text-anchor="end">Fedora Rawhide</text><text x="173" y="539" text-anchor="end">Fedora Rawhide</text><text x="218.5" y="540" fill="#010101" fill-opacity=".3" text-anchor="middle">1.7.1</text><text x="218.5" y="539" text-anchor="middle">1.7.1</text></g><rect x="178" y="545" width="81" height="20" fill="#4c1"/><rect y="545" width="100%" height="20" fill="url(#grad)"/><g fill="#fff" font-family="DejaVu Sans,Verdana,Geneva,sans-serif" font-size="11"><text x="173" y="560" fill="#010101" fill-opacity=".3" text-anchor="end">Gentoo</text><text x="173" y="559" text-anchor="end">Gentoo</text><text x="218.5" y="560" fill="#010101" fill-opacity=".3" text-anchor="middle">1.7.1</text><text x="218.5" y="559" text-anchor="middle">1.7.1</text></g><rect x="178" y="565" width="81" height="20" fill="#e05d44"/><rect y="565" width="100%" height="20" fill="url(#grad)"/><g fill="#fff" font-family="DejaVu Sans,Verdana,Geneva,sans-serif" font-size="11"><text x="173" y="580" fill="#010101" fill-opacity=".3" text-anchor="end">GNU Guix</text><text x="173" y="579" text-anchor="end">GNU Guix</text><text x="218.5" y="580" fill="#010101" fill-opacity=".3" text-anchor="middle">1.7.0</text><text x="218.5" y="579" text-anchor="middle">1.7.0</text></g><rect x="178" y="585" width="81" height="20" fill="#4c1"/><rect y="585" width="100%" height="20" fill="url(#grad)"/><g fill="#fff" font-family="DejaVu Sans,Verdana,Geneva,sans-serif" font-size="11"><text x="173" y="600" fill="#010101" fill-opacity=".3" text-anchor="end">Homebrew</text><text x="173" y="599" text-anchor="end">Homebrew</text><text x="218.5" y="600" fill="#010101" fill-opacity=".3" text-anchor="middle">1.7.1</text><text x="218.5" y="599" text-anchor="middle">1.7.1</text></g><rect x="178" y="605" width="81" height="20" fill="#4c1"/><rect y="605" width="100%" height="20" fill="url(#grad)"/><g fill="#fff" font-family="DejaVu Sans,Verdana,Geneva,sans-serif" font-size="11"><text x="173" y="620" fill="#010101" fill-opacity=".3" text-anchor="end">Kali Linux Rolling</text><text x="173" y="619" text-anchor="end">Kali Linux Rolling</text><text x="218.5" y="620" fill="#010101" fill-opacity=".3" text-anchor="middle">1.7.1.0</text><text x="218.5" y="619" text-anchor="middle">1.7.1.0</text></g><rect x="178" y="625" width="81" height="20" fill="#4c1"/><rect y="625" width="100%" height="20" fill="url(#grad)"/><g fill="#fff" font-family="DejaVu Sans,Verdana,Geneva,sans-serif" font-size="11"><text x="173" y="640" fill="#010101" fill-opacity=".3" text-anchor="end">KDE neon Testing</text><text x="173" y="639" text-anchor="end">KDE neon Testing</text><text x="218.5" y="640" fill="#010101" fill-opacity=".3" text-anchor="middle">1.7.1.0</text><text x="218.5" y="639" text-anchor="middle">1.7.1.0</text></g><rect x="178" y="645" width="81" height="20" fill="#4c1"/><rect y="645" width="100%" height="20" fill="url(#grad)"/><g fill="#fff" font-family="DejaVu Sans,Verdana,Geneva,sans-serif" font-size="11"><text x="173" y="660" fill="#010101" fill-opacity=".3" text-anchor="end">KDE neon Unstable</text><text x="173" y="659" text-anchor="end">KDE neon Unstable</text><text x="218.5" y="660" fill="#010101" fill-opacity=".3" text-anchor="middle">1.7.1.0</text><text x="218.5" y="659" text-anchor="middle">1.7.1.0</text></g><rect x="178" y="665" width="81" height="20" fill="#e05d44"/><rect y="665" width="100%" height="20" fill="url(#grad)"/><g fill="#fff" font-family="DejaVu Sans,Verdana,Geneva,sans-serif" font-size="11"><text x="173" y="680" fill="#010101" fill-opacity=".3" text-anchor="end">KISS Community - community</text><text x="173" y="679" text-anchor="end">KISS Community - community</text><text x="218.5" y="680" fill="#010101" fill-opacity=".3" text-anchor="middle">1.6.0.1</text><text x="218.5" y="679" text-anchor="middle">1.6.0.1</text></g><rect x="178" y="685" width="81" height="20" fill="#e05d44"/><rect y="685" width="100%" height="20" fill="url(#grad)"/><g fill="#fff" font-family="DejaVu Sans,Verdana,Geneva,sans-serif" font-size="11"><text x="173" y="700" fill="#010101" fill-opacity=".3" text-anchor="end">LiGurOS stable</text><text x="173" y="699" text-anchor="end">LiGurOS stable</text><text x="218.5" y="700" fill="#010101" fill-opacity=".3" text-anchor="middle">1.6.0.1</text><text x="218.5" y="699" text-anchor="middle">1.6.0.1</text></g><rect x="178" y="705" width="81" height="20" fill="#4c1"/><rect y="705" width="100%" height="20" fill="url(#grad)"/><g fill="#fff" font-family="DejaVu Sans,Verdana,Geneva,sans-serif" font-size="11"><text x="173" y="720" fill="#010101" fill-opacity=".3" text-anchor="end">LiGurOS develop</text><text x="173" y="719" text-anchor="end">LiGurOS develop</text><text x="218.5" y="720" fill="#010101" fill-opacity=".3" text-anchor="middle">1.7.1</text><text x="218.5" y="719" text-anchor="middle">1.7.1</text></g><rect x="178" y="725" width="81" height="20" fill="#e05d44"/><rect y="725" width="100%" height="20" fill="url(#grad)"/><g fill="#fff" font-family="DejaVu Sans,Verdana,Geneva,sans-serif" font-size="11"><text x="173" y="740" fill="#010101" fill-opacity=".3" text-anchor="end">Manjaro Stable</text><text x="173" y="739" text-anchor="end">Manjaro Stable</text><text x="218.5" y="740" fill="#010101" fill-opacity=".3" text-anchor="middle">1.7.0</text><text x="218.5" y="739" text-anchor="middle">1.7.0</text></g><rect x="178" y="745" width="81" height="20" fill="#4c1"/><rect y="745" width="100%" height="20" fill="url(#grad)"/><g fill="#fff" font-family="DejaVu Sans,Verdana,Geneva,sans-serif" font-size="11"><text x="173" y="760" fill="#010101" fill-opacity=".3" text-anchor="end">Manjaro Testing</text><text x="173" y="759" text-anchor="end">Manjaro Testing</text><text x="218.5" y="760" fill="#010101" fill-opacity=".3" text-anchor="middle">1.7.1.0</text><text x="218.5" y="759" text-anchor="middle">1.7.1.0</text></g><rect x="178" y="765" width="81" height="20" fill="#4c1"/><rect y="765" width="100%" height="20" fill="url(#grad)"/><g fill="#fff" font-family="DejaVu Sans,Verdana,Geneva,sans-serif" font-size="11"><text x="173" y="780" fill="#010101" fill-opacity=".3" text-anchor="end">Manjaro Unstable</text><text x="173" y="779" text-anchor="end">Manjaro Unstable</text><text x="218.5" y="780" fill="#010101" fill-opacity=".3" text-anchor="middle">1.7.1.0</text><text x="218.5" y="779" text-anchor="middle">1.7.1.0</text></g><rect x="178" y="785" width="81" height="20" fill="#e05d44"/><rect y="785" width="100%" height="20" fill="url(#grad)"/><g fill="#fff" font-family="DejaVu Sans,Verdana,Geneva,sans-serif" font-size="11"><text x="173" y="800" fill="#010101" fill-opacity=".3" text-anchor="end">nixpkgs stable 21.11</text><text x="173" y="799" text-anchor="end">nixpkgs stable 21.11</text><text x="218.5" y="800" fill="#010101" fill-opacity=".3" text-anchor="middle">1.2.13</text><text x="218.5" y="799" text-anchor="middle">1.2.13</text></g><rect x="178" y="805" width="81" height="20" fill="#e05d44"/><rect y="805" width="100%" height="20" fill="url(#grad)"/><g fill="#fff" font-family="DejaVu Sans,Verdana,Geneva,sans-serif" font-size="11"><text x="173" y="820" fill="#010101" fill-opacity=".3" text-anchor="end">nixpkgs stable 22.05</text><text x="173" y="819" text-anchor="end">nixpkgs stable 22.05</text><text x="218.5" y="820" fill="#010101" fill-opacity=".3" text-anchor="middle">1.3.1</text><text x="218.5" y="819" text-anchor="middle">1.3.1</text></g><rect x="178" y="825" width="81" height="20" fill="#e05d44"/><rect y="825" width="100%" height="20" fill="url(#grad)"/><g fill="#fff" font-family="DejaVu Sans,Verdana,Geneva,sans-serif" font-size="11"><text x="173" y="840" fill="#010101" fill-opacity=".3" text-anchor="end">nixpkgs stable 22.11</text><text x="173" y="839" text-anchor="end">nixpkgs stable 22.11</text><text x="218.5" y="840" fill="#010101" fill-opacity=".3" text-anchor="middle">1.4.1</text><text x="218.5" y="839" text-anchor="middle">1.4.1</text></g><rect x="178" y="845" width="81" height="20" fill="#e05d44"/><rect y="845" width="100%" height="20" fill="url(#grad)"/><g fill="#fff" font-family="DejaVu Sans,Verdana,Geneva,sans-serif" font-size="11"><text x="173" y="860" fill="#010101" fill-opacity=".3" text-anchor="end">nixpkgs stable 23.05</text><text x="173" y="859" text-anchor="end">nixpkgs stable 23.05</text><text x="218.5" y="860" fill="#010101" fill-opacity=".3" text-anchor="middle">1.4.2.1</text><text x="218.5" y="859" text-anchor="middle">1.4.2.1</text></g><rect x="178" y="865" width="81" height="20" fill="#e05d44"/><rect y="865" width="100%" height="20" fill="url(#grad)"/><g fill="#fff" font-family="DejaVu Sans,Verdana,Geneva,sans-serif" font-size="11"><text x="173" y="880" fill="#010101" fill-opacity=".3" text-anchor="end">nixpkgs stable 23.11</text><text x="173" y="879" text-anchor="end">nixpkgs stable 23.11</text><text x="218.5" y="880" fill="#010101" fill-opacity=".3" text-anchor="middle">1.5.0.2</text><text x="218.5" y="879" text-anchor="middle">1.5.0.2</text></g><rect x="178" y="885" width="81" height="20" fill="#4c1"/><rect y="885" width="100%" height="20" fill="url(#grad)"/><g fill="#fff" font-family="DejaVu Sans,Verdana,Geneva,sans-serif" font-size="11"><text x="173" y="900" fill="#010101" fill-opacity=".3" text-anchor="end">nixpkgs unstable</text><text x="173" y="899" text-anchor="end">nixpkgs unstable</text><text x="218.5" y="900" fill="#010101" fill-opacity=".3" text-anchor="middle">1.7.1</text><text x="218.5" y="899" text-anchor="middle">1.7.1</text></g><rect x="178" y="905" width="81" height="20" fill="#e05d44"/><rect y="905" width="100%" height="20" fill="url(#grad)"/><g fill="#fff" font-family="DejaVu Sans,Verdana,Geneva,sans-serif" font-size="11"><text x="173" y="920" fill="#010101" fill-opacity=".3" text-anchor="end">OpenMandriva 5.0</text><text x="173" y="919" text-anchor="end">OpenMandriva 5.0</text><text x="218.5" y="920" fill="#010101" fill-opacity=".3" text-anchor="middle">1.6.0.1</text><text x="218.5" y="919" text-anchor="middle">1.6.0.1</text></g><rect x="178" y="925" width="81" height="20" fill="#e05d44"/><rect y="925" width="100%" height="20" fill="url(#grad)"/><g fill="#fff" font-family="DejaVu Sans,Verdana,Geneva,sans-serif" font-size="11"><text x="173" y="940" fill="#010101" fill-opacity=".3" text-anchor="end">OpenMandriva Rolling</text><text x="173" y="939" text-anchor="end">OpenMandriva Rolling</text><text x="218.5" y="940" fill="#010101" fill-opacity=".3" text-anchor="middle">1.7.0.1</text><text x="218.5" y="939" text-anchor="middle">1.7.0.1</text></g><rect x="178" y="945" width="81" height="20" fill="#e05d44"/><rect y="945" width="100%" height="20" fill="url(#grad)"/><g fill="#fff" font-family="DejaVu Sans,Verdana,Geneva,sans-serif" font-size="11"><text x="173" y="960" fill="#010101" fill-opacity=".3" text-anchor="end">OpenMandriva Cooker</text><text x="173" y="959" text-anchor="end">OpenMandriva Cooker</text><text x="218.5" y="960" fill="#010101" fill-opacity=".3" text-anchor="middle">1.7.0.1</text><text x="218.5" y="959" text-anchor="middle">1.7.0.1</text></g><rect x="178" y="965" width="81" height="20" fill="#e05d44"/><rect y="965" width="100%" height="20" fill="url(#grad)"/><g fill="#fff" font-family="DejaVu Sans,Verdana,Geneva,sans-serif" font-size="11"><text x="173" y="980" fill="#010101" fill-opacity=".3" text-anchor="end">openSUSE Leap 15.5</text><text x="173" y="979" text-anchor="end">openSUSE Leap 15.5</text><text x="218.5" y="980" fill="#010101" fill-opacity=".3" text-anchor="middle">1.4.2.1</text><text x="218.5" y="979" text-anchor="middle">1.4.2.1</text></g><rect x="178" y="985" width="81" height="20" fill="#e05d44"/><rect y="985" width="100%" height="20" fill="url(#grad)"/><g fill="#fff" font-family="DejaVu Sans,Verdana,Geneva,sans-serif" font-size="11"><text x="173" y="1000" fill="#010101" fill-opacity=".3" text-anchor="end">openSUSE Leap 15.6</text><text x="173" y="999" text-anchor="end">openSUSE Leap 15.6</text><text x="218.5" y="1000" fill="#010101" fill-opacity=".3" text-anchor="middle">1.6.0.1</text><text x="218.5" y="999" text-anchor="middle">1.6.0.1</text></g><rect x="178" y="1005" width="81" height="20" fill="#4c1"/><rect y="1005" width="100%" height="20" fill="url(#grad)"/><g fill="#fff" font-family="DejaVu Sans,Verdana,Geneva,sans-serif" font-size="11"><text x="173" y="1020" fill="#010101" fill-opacity=".3" text-anchor="end">openSUSE Tumbleweed</text><text x="173" y="1019" text-anchor="end">openSUSE Tumbleweed</text><text x="218.5" y="1020" fill="#010101" fill-opacity=".3" text-anchor="middle">1.7.1</text><text x="218.5" y="1019" text-anchor="middle">1.7.1</text></g><rect x="178" y="1025" width="81" height="20" fill="#4c1"/><rect y="1025" width="100%" height="20" fill="url(#grad)"/><g fill="#fff" font-family="DejaVu Sans,Verdana,Geneva,sans-serif" font-size="11"><text x="173" y="1040" fill="#010101" fill-opacity=".3" text-anchor="end">pacstall</text><text x="173" y="1039" text-anchor="end">pacstall</text><text x="218.5" y="1040" fill="#010101" fill-opacity=".3" text-anchor="middle">1.7.1</text><text x="218.5" y="1039" text-anchor="middle">1.7.1</text></g><rect x="178" y="1045" width="81" height="20" fill="#4c1"/><rect y="1045" width="100%" height="20" fill="url(#grad)"/><g fill="#fff" font-family="DejaVu Sans,Verdana,Geneva,sans-serif" font-size="11"><text x="173" y="1060" fill="#010101" fill-opacity=".3" text-anchor="end">Parabola</text><text x="173" y="1059" text-anchor="end">Parabola</text><text x="218.5" y="1060" fill="#010101" fill-opacity=".3" text-anchor="middle">1.7.1.0</text><text x="218.5" y="1059" text-anchor="middle">1.7.1.0</text></g><rect x="178" y="1065" width="81" height="20" fill="#e05d44"/><rect y="1065" width="100%" height="20" fill="url(#grad)"/><g fill="#fff" font-family="DejaVu Sans,Verdana,Geneva,sans-serif" font-size="11"><text x="173" y="1080" fill="#010101" fill-opacity=".3" text-anchor="end">PureOS landing</text><text x="173" y="1079" text-anchor="end">PureOS landing</text><text x="218.5" y="1080" fill="#010101" fill-opacity=".3" text-anchor="middle">1.4.2.1</text><text x="218.5" y="1079" text-anchor="middle">1.4.2.1</text></g><rect x="178" y="1085" width="81" height="20" fill="#e05d44"/><rect y="1085" width="100%" height="20" fill="url(#grad)"/><g fill="#fff" font-family="DejaVu Sans,Verdana,Geneva,sans-serif" font-size="11"><text x="173" y="1100" fill="#010101" fill-opacity=".3" text-anchor="end">Raspbian Stable</text><text x="173" y="1099" text-anchor="end">Raspbian Stable</text><text x="218.5" y="1100" fill="#010101" fill-opacity=".3" text-anchor="middle">1.4.2.1</text><text x="218.5" y="1099" text-anchor="middle">1.4.2.1</text></g><rect x="178" y="1105" width="81" height="20" fill="#e05d44"/><rect y="1105" width="100%" height="20" fill="url(#grad)"/><g fill="#fff" font-family="DejaVu Sans,Verdana,Geneva,sans-serif" font-size="11"><text x="173" y="1120" fill="#010101" fill-opacity=".3" text-anchor="end">Raspbian Testing</text><text x="173" y="1119" text-anchor="end">Raspbian Testing</text><text x="218.5" y="1120" fill="#010101" fill-opacity=".3" text-anchor="middle">1.6.0.1</text><text x="218.5" y="1119" text-anchor="middle">1.6.0.1</text></g><rect x="178" y="1125" width="81" height="20" fill="#e05d44"/><rect y="1125" width="100%" height="20" fill="url(#grad)"/><g fill="#fff" font-family="DejaVu Sans,Verdana,Geneva,sans-serif" font-size="11"><text x="173" y="1140" fill="#010101" fill-opacity=".3" text-anchor="end">Rosa 2021.1</text><text x="173" y="1139" text-anchor="end">Rosa 2021.1</text><text x="218.5" y="1140" fill="#010101" fill-opacity=".3" text-anchor="middle">1.6.0.1</text><text x="218.5" y="1139" text-anchor="middle">1.6.0.1</text></g><rect x="178" y="1145" width="81" height="20" fill="#4c1"/><rect y="1145" width="100%" height="20" fill="url(#grad)"/><g fill="#fff" font-family="DejaVu Sans,Verdana,Geneva,sans-serif" font-size="11"><text x="173" y="1160" fill="#010101" fill-opacity=".3" text-anchor="end">SlackBuilds</text><text x="173" y="1159" text-anchor="end">SlackBuilds</text><text x="218.5" y="1160" fill="#010101" fill-opacity=".3" text-anchor="middle">1.7.1</text><text x="218.5" y="1159" text-anchor="middle">1.7.1</text></g><rect x="178" y="1165" width="81" height="20" fill="#e05d44"/><rect y="1165" width="100%" height="20" fill="url(#grad)"/><g fill="#fff" font-family="DejaVu Sans,Verdana,Geneva,sans-serif" font-size="11"><text x="173" y="1180" fill="#010101" fill-opacity=".3" text-anchor="end">Ubuntu 23.04</text><text x="173" y="1179" text-anchor="end">Ubuntu 23.04</text><text x="218.5" y="1180" fill="#010101" fill-opacity=".3" text-anchor="middle">1.4.2.1</text><text x="218.5" y="1179" text-anchor="middle">1.4.2.1</text></g><rect x="178" y="1185" width="81" height="20" fill="#e05d44"/><rect y="1185" width="100%" height="20" fill="url(#grad)"/><g fill="#fff" font-family="DejaVu Sans,Verdana,Geneva,sans-serif" font-size="11"><text x="173" y="1200" fill="#010101" fill-opacity=".3" text-anchor="end">Ubuntu 23.10</text><text x="173" y="1199" text-anchor="end">Ubuntu 23.10</text><text x="218.5" y="1200" fill="#010101" fill-opacity=".3" text-anchor="middle">1.4.2.1</text><text x="218.5" y="1199" text-anchor="middle">1.4.2.1</text></g><rect x="178" y="1205" width="81" height="20" fill="#e05d44"/><rect y="1205" width="100%" height="20" fill="url(#grad)"/><g fill="#fff" font-family="DejaVu Sans,Verdana,Geneva,sans-serif" font-size="11"><text x="173" y="1220" fill="#010101" fill-opacity=".3" text-anchor="end">Ubuntu 24.04</text><text x="173" y="1219" text-anchor="end">Ubuntu 24.04</text><text x="218.5" y="1220" fill="#010101" fill-opacity=".3" text-anchor="middle">1.7.0</text><text x="218.5" y="1219" text-anchor="middle">1.7.0</text></g></g></svg>